<?xml version="1.0" encoding="UTF-8" standalone="no"?>
<!-- Created with Inkscape (http://www.inkscape.org/) -->

<svg
   width="112.80211mm"
   height="166.94817mm"
   viewBox="0 0 112.80211 166.94817"
   version="1.1"
   id="svg1"
   xmlns="http://www.w3.org/2000/svg"
   xmlns:svg="http://www.w3.org/2000/svg">
  <defs
     id="defs1" />
  <g
     id="layer1"
     transform="translate(-40.296851,-83.927639)">
    <path
       style="display:inline;fill:#41d8ce;fill-opacity:1;stroke:#1dcf78;stroke-width:0.7;stroke-linejoin:bevel;stroke-dasharray:none;stroke-opacity:1"
       d="m 86.165779,249.64395 c -7.776933,-1.57242 -14.838901,-4.58833 -21.710452,-9.27174 -3.996466,-2.72386 -10.948859,-9.77223 -13.84258,-14.03367 -5.129449,-7.55391 -8.794231,-17.86336 -9.54342,-26.8467 l -0.423689,-5.08043 h 18.928818 18.92881 l 0.01406,2.39453 c 0.01869,3.19093 2.074193,7.58032 4.969618,10.61228 7.155128,7.49252 19.627816,7.44644 26.428456,-0.0976 3.1247,-3.46629 4.33661,-5.934 4.78865,-9.75081 l 0.37406,-3.15838 h 18.83614 18.83614 l -0.43425,4.79211 c -2.3388,25.80957 -21.08623,46.20375 -46.63242,50.72853 -5.02802,0.89057 -14.370423,0.75267 -19.517904,-0.2881 z M 65.223451,185.45692 C 59.91431,181.91161 51.905982,173.23863 48.682667,167.54334 37.561491,147.89324 39.143051,123.39003 52.677314,105.65398 59.837595,96.270751 70.43585,89.097347 82.148393,85.706549 86.37002,84.484383 88.622706,84.268 97.021004,84.277953 c 11.679936,0.01384 15.034796,0.750306 24.583886,5.396677 11.33255,5.514159 19.72407,13.90568 25.23823,25.23822 4.64636,9.54909 5.38283,12.90396 5.39667,24.58389 0.01,8.3983 -0.20643,10.65098 -1.42859,14.87261 -2.6987,9.32189 -8.3262,18.77601 -14.94252,25.10321 -4.15294,3.97147 -9.36898,7.91487 -10.46923,7.91487 -0.81183,0 -21.35448,-29.42269 -21.35448,-30.58546 0,-0.33939 0.60645,-0.80954 1.34767,-1.04479 0.74122,-0.23526 2.48761,-1.4576 3.88086,-2.71632 7.49377,-6.77017 8.02129,-18.08002 1.20539,-25.8429 -5.09167,-5.7991 -14.689405,-7.64125 -21.51843,-4.13015 -11.357268,5.83926 -13.889951,20.01539 -5.147731,28.81325 1.820976,1.83256 4.009986,3.76903 4.864467,4.30326 l 1.553611,0.97134 -7.379851,10.80573 c -4.058911,5.94314 -8.818234,12.89011 -10.576261,15.4377 l -3.196418,4.63198 z"
       id="path2" />
  </g>
</svg>
